<svg width="36" height="36" viewBox="0 0 36 36" fill="none" xmlns="http://www.w3.org/2000/svg">
<g clip-path="url(#clip0_1_130)">
<rect x="4" width="2" height="2" fill="black"/>
<rect x="4" y="2" width="2" height="2" fill="white"/>
<rect x="2" y="6" width="2" height="2" fill="white"/>
<rect x="4" y="6" width="2" height="2" fill="white"/>
<rect x="6" y="6" width="2" height="2" fill="white"/>
<rect x="8" y="6" width="2" height="2" fill="white"/>
<rect x="6" y="8" width="2" height="2" fill="white"/>
<rect x="4" y="8" width="2" height="2" fill="white"/>
<rect x="6" y="2" width="2" height="2" fill="#FF0000"/>
<rect x="8" y="4" width="2" height="2" fill="#FF0000"/>
<rect x="6" y="4" width="2" height="2" fill="#FF0000"/>
<rect x="4" y="4" width="2" height="2" fill="#FF0000"/>
<rect x="2" y="4" width="2" height="2" fill="#FF0000"/>
<rect x="2" y="2" width="2" height="2" fill="black"/>
<rect y="4" width="2" height="2" fill="black"/>
<rect y="6" width="2" height="2" fill="black"/>
<rect x="2" y="8" width="2" height="2" fill="black"/>
<rect x="4" y="10" width="2" height="2" fill="black"/>
<rect x="6" y="10" width="2" height="2" fill="black"/>
<rect x="8" y="8" width="2" height="2" fill="black"/>
<rect x="10" y="6" width="2" height="2" fill="black"/>
<rect width="2" height="2" transform="matrix(1 0 0 -1 10 6)" fill="black"/>
<rect width="2" height="2" transform="matrix(1 0 0 -1 8 4)" fill="black"/>
<rect x="6" width="2" height="2" fill="black"/>
<rect x="28" width="2" height="2" fill="black"/>
<rect x="28" y="2" width="2" height="2" fill="white"/>
<rect x="26" y="6" width="2" height="2" fill="white"/>
<rect x="28" y="6" width="2" height="2" fill="white"/>
<rect x="30" y="6" width="2" height="2" fill="white"/>
<rect x="32" y="6" width="2" height="2" fill="white"/>
<rect x="30" y="8" width="2" height="2" fill="white"/>
<rect x="28" y="8" width="2" height="2" fill="white"/>
<rect x="30" y="2" width="2" height="2" fill="#FF0000"/>
<rect x="32" y="4" width="2" height="2" fill="#FF0000"/>
<rect x="30" y="4" width="2" height="2" fill="#FF0000"/>
<rect x="28" y="4" width="2" height="2" fill="#FF0000"/>
<rect x="26" y="4" width="2" height="2" fill="#FF0000"/>
<rect x="26" y="2" width="2" height="2" fill="black"/>
<rect x="24" y="4" width="2" height="2" fill="black"/>
<rect x="24" y="6" width="2" height="2" fill="black"/>
<rect x="26" y="8" width="2" height="2" fill="black"/>
<rect x="28" y="10" width="2" height="2" fill="black"/>
<rect x="30" y="10" width="2" height="2" fill="black"/>
<rect x="32" y="8" width="2" height="2" fill="black"/>
<rect x="34" y="6" width="2" height="2" fill="black"/>
<rect width="2" height="2" transform="matrix(1 0 0 -1 34 6)" fill="black"/>
<rect width="2" height="2" transform="matrix(1 0 0 -1 32 4)" fill="black"/>
<rect x="30" width="2" height="2" fill="black"/>
<rect x="28" y="24" width="2" height="2" fill="black"/>
<rect x="28" y="26" width="2" height="2" fill="white"/>
<rect x="26" y="30" width="2" height="2" fill="white"/>
<rect x="28" y="30" width="2" height="2" fill="white"/>
<rect x="30" y="30" width="2" height="2" fill="white"/>
<rect x="32" y="30" width="2" height="2" fill="white"/>
<rect x="30" y="32" width="2" height="2" fill="white"/>
<rect x="28" y="32" width="2" height="2" fill="white"/>
<rect x="30" y="26" width="2" height="2" fill="#FF0000"/>
<rect x="32" y="28" width="2" height="2" fill="#FF0000"/>
<rect x="30" y="28" width="2" height="2" fill="#FF0000"/>
<rect x="28" y="28" width="2" height="2" fill="#FF0000"/>
<rect x="26" y="28" width="2" height="2" fill="#FF0000"/>
<rect x="26" y="26" width="2" height="2" fill="black"/>
<rect x="24" y="28" width="2" height="2" fill="black"/>
<rect x="24" y="30" width="2" height="2" fill="black"/>
<rect x="26" y="32" width="2" height="2" fill="black"/>
<rect x="28" y="34" width="2" height="2" fill="black"/>
<rect x="30" y="34" width="2" height="2" fill="black"/>
<rect x="32" y="32" width="2" height="2" fill="black"/>
<rect x="34" y="30" width="2" height="2" fill="black"/>
<rect width="2" height="2" transform="matrix(1 0 0 -1 34 30)" fill="black"/>
<rect width="2" height="2" transform="matrix(1 0 0 -1 32 28)" fill="black"/>
<rect x="30" y="24" width="2" height="2" fill="black"/>
<rect x="4" y="24" width="2" height="2" fill="black"/>
<rect x="4" y="26" width="2" height="2" fill="white"/>
<rect x="2" y="30" width="2" height="2" fill="white"/>
<rect x="4" y="30" width="2" height="2" fill="white"/>
<rect x="6" y="30" width="2" height="2" fill="white"/>
<rect x="8" y="30" width="2" height="2" fill="white"/>
<rect x="6" y="32" width="2" height="2" fill="white"/>
<rect x="4" y="32" width="2" height="2" fill="white"/>
<rect x="6" y="26" width="2" height="2" fill="#FF0000"/>
<rect x="8" y="28" width="2" height="2" fill="#FF0000"/>
<rect x="6" y="28" width="2" height="2" fill="#FF0000"/>
<rect x="4" y="28" width="2" height="2" fill="#FF0000"/>
<rect x="2" y="28" width="2" height="2" fill="#FF0000"/>
<rect x="2" y="26" width="2" height="2" fill="black"/>
<rect y="28" width="2" height="2" fill="black"/>
<rect y="30" width="2" height="2" fill="black"/>
<rect x="2" y="32" width="2" height="2" fill="black"/>
<rect x="4" y="34" width="2" height="2" fill="black"/>
<rect x="6" y="34" width="2" height="2" fill="black"/>
<rect x="8" y="32" width="2" height="2" fill="black"/>
<rect x="10" y="30" width="2" height="2" fill="black"/>
<rect width="2" height="2" transform="matrix(1 0 0 -1 10 30)" fill="black"/>
<rect width="2" height="2" transform="matrix(1 0 0 -1 8 28)" fill="black"/>
<rect x="6" y="24" width="2" height="2" fill="black"/>
<g clip-path="url(#clip1_1_130)">
<rect x="4" y="24" width="12" height="1" transform="rotate(-90 4 24)" fill="black"/>
<path d="M6 23L6 13L7 13L7 23L6 23Z" fill="black"/>
<rect x="7" y="24" width="12" height="1" transform="rotate(-90 7 24)" fill="black"/>
</g>
<rect x="12" y="4" width="12" height="1" fill="black"/>
<path d="M13 6L23 6V7L13 7V6Z" fill="black"/>
<rect x="12" y="7" width="12" height="1" fill="black"/>
<g clip-path="url(#clip2_1_130)">
<rect x="32" y="12" width="12" height="1" transform="rotate(90 32 12)" fill="black"/>
<path d="M30 13L30 23L29 23L29 13L30 13Z" fill="black"/>
<rect x="29" y="12" width="12" height="1" transform="rotate(90 29 12)" fill="black"/>
</g>
<g clip-path="url(#clip3_1_130)">
<rect x="24" y="32" width="12" height="1" transform="rotate(-180 24 32)" fill="black"/>
<path d="M23 30L13 30L13 29L23 29L23 30Z" fill="black"/>
<rect x="24" y="29" width="12" height="1" transform="rotate(-180 24 29)" fill="black"/>
</g>
</g>
<defs>
<clipPath id="clip0_1_130">
<rect width="36" height="36" fill="white"/>
</clipPath>
<clipPath id="clip1_1_130">
<rect width="12" height="12" fill="white" transform="translate(0 24) rotate(-90)"/>
</clipPath>
<clipPath id="clip2_1_130">
<rect width="12" height="12" fill="white" transform="translate(36 12) rotate(90)"/>
</clipPath>
<clipPath id="clip3_1_130">
<rect width="12" height="12" fill="white" transform="translate(24 36) rotate(-180)"/>
</clipPath>
</defs>
</svg>
